# xmcd CD database file
#
# Track frame offsets:
#	150
#	31522
#	51235
#	76949
#	103551
#	130460
#	156206
#	180449
#	204157
#	218547
#	241616
#	260125
#	291395
#	325258
#
# Disc length: 4770 seconds
#
# Revision: 0
# Processed by: cddbd v1.5.1PL0 Copyright (c) Steve Scherf et al.
# Submitted via: CDex 1.51
#
DISCID=b912a00e
DTITLE=Journey - Generations
DYEAR=2005
DGENRE=Rock
TTITLE0=Faith In The Heartland
TTITLE1=The Place In Your Heart
TTITLE2=A Better Life
TTITLE3=Every Generation
TTITLE4=Butterfly [She Flies Alone]
TTITLE5=Believe
TTITLE6=Knowing That You Love Me
TTITLE7=Out Of Harms Way
TTITLE8=In Self-Defense
TTITLE9=Better Together
TTITLE10=Gone Crazy
TTITLE11=Beyond The Clouds
TTITLE12=Never Too Late [BONUS TRACK]
TTITLE13=Multimedia Bonus Video track
EXTD=YEAR: 2005
EXTT0=
EXTT1=
EXTT2=
EXTT3=
EXTT4=
EXTT5=
EXTT6=
EXTT7=
EXTT8=
EXTT9=
EXTT10=
EXTT11=
EXTT12=
EXTT13=
PLAYORDER=
